<?xml version="1.0" encoding="UTF-8" standalone="no"?>
<!DOCTYPE svg PUBLIC "-//W3C//DTD SVG 1.1//EN" "http://www.w3.org/Graphics/SVG/1.1/DTD/svg11.dtd">
<svg width="100%" height="100%" viewBox="0 0 40 40" version="1.1" xmlns="http://www.w3.org/2000/svg" xmlns:xlink="http://www.w3.org/1999/xlink" xml:space="preserve" style="fill-rule:evenodd;clip-rule:evenodd;stroke-linejoin:round;stroke-miterlimit:2;">
    <g id="V3-Dark" transform="matrix(1.30366,0,0,1.30366,-4.09733,-4.54609)">
        <g transform="matrix(0.272264,0.272264,-0.707107,0.707107,33.0609,8.46247)">
            <rect x="3.325" y="14.166" width="30.776" height="5.013" style="fill:rgb(240,167,50);"/>
        </g>
        <g transform="matrix(0.875635,0,0,0.875635,2.70385,3.04808)">
            <path d="M19.673,24.282L18.188,25.139L9.138,25.139L2.645,18.646L2.59,18.502L2.59,10.208C2.612,10.15 2.634,10.092 2.657,10.034L9.138,3.553L18.188,3.553L20.02,4.61L15.75,8.881C15.091,8.61 14.368,8.468 13.612,8.468C10.363,8.468 7.725,11.106 7.725,14.355C7.725,17.605 10.363,20.243 13.612,20.243C14.223,20.243 14.811,20.15 15.362,19.972L19.673,24.282Z" style="fill:rgb(175,177,179);"/>
        </g>
        <g transform="matrix(0.767069,0,0,0.767069,3.14293,3.48716)">
            <path d="M18.596,21.441C20.46,20.266 21.687,18.182 21.687,15.814C21.687,13.606 20.62,11.644 18.963,10.437L23.728,5.672C26.602,8.108 28.408,11.752 28.408,15.814C28.408,20.034 26.46,23.802 23.389,26.234L18.596,21.441Z" style="fill:rgb(240,167,50);"/>
        </g>
    </g>
</svg>
